# xmcd CD database file
#
# Track frame offsets:
#	150
#	19812
#	37725
#	57180
#	76615
#	98835
#	120545
#	140157
#	162857
#	183532
#	200300
#	225042
#
# Disc length: 3377 seconds
#
# Revision: 0
# Processed by: cddbd v1.5.1PL2 Copyright (c) Steve Scherf et al.
# Submitted via: CDex 1.51
#
DISCID=880d2f0c
DTITLE=The Band of Life - The Band of Life
DYEAR=1995
DGENRE=New Age
TTITLE0=The Band of Life
TTITLE1=Namaste
TTITLE2=A World of Love
TTITLE3=Beautiful You
TTITLE4=Joy Island
TTITLE5=It Will Come
TTITLE6=Unconditional Love
TTITLE7=The Window
TTITLE8=Utopia
TTITLE9=Claim Your Power
TTITLE10=The Ultimate Gift
TTITLE11=The Light of Life is Love
EXTD=YEAR: 1995
EXTT0=
EXTT1=
EXTT2=
EXTT3=
EXTT4=
EXTT5=
EXTT6=
EXTT7=
EXTT8=
EXTT9=
EXTT10=
EXTT11=
PLAYORDER=
